<?xml version="1.0" encoding="utf-8"?>
<!-- Generator: Adobe Illustrator 19.2.1, SVG Export Plug-In . SVG Version: 6.00 Build 0)  -->
<svg version="1.1" id="Layer_1" xmlns="http://www.w3.org/2000/svg" xmlns:xlink="http://www.w3.org/1999/xlink" x="0px" y="0px"
	 viewBox="0 0 70 70" style="enable-background:new 0 0 70 70;" xml:space="preserve">
<style type="text/css">
	.st0{fill:#FFFFFF;}
</style>
<path id="XMLID_468_" class="st0" d="M56.2,33.2c-3.5-1.8-6.7-3.6-8.1-6.6c-0.6-1.4-0.9-3-0.5-5C48.3,16.8,52.4,10,51.1,5
	C49.8-0.1,42,9.4,41,10.5c-2.3,2.6-4.9,7-8.2,7.7c-1.1,0.2-2.3,0.1-3.6-0.3c-5.4-2-9.4-6.9-14.9-8.7c-5.4-1.8-2,5.3-0.9,7.4
	c1.9,3.6,6.2,9,5.6,13.5c-0.1,0.6-0.3,1.3-0.6,1.9c-2.3,4.6-8,7.3-11.9,10.6c-3.3,2.8-4.9,6.1,0.8,5.7c5.3-0.3,10.6-2.4,16-1.9
	c1,0.1,1.9,0.4,2.7,0.9c3.2,1.9,4.4,6.5,5.5,9.9c0.7,2.1,2.5,9.8,5.7,9.4c3.9-0.5,3.8-12.4,4.2-15.1c0.3-1.7,0.7-3,1.3-4.1
	c-0.1-0.1-0.2-0.2-0.3-0.3c-1-0.8-2-1.3-2.9-1.4c0,0-0.1,0-0.1,0c-0.9,0-1.8,0.3-2.8,1.1c-0.9,0.7-4.3,4.4-5.6,3.4
	c-1.1-0.8,0.6-3.7,1-4.5c0.6-1.4,1.6-3.1,1.2-4.6c-0.1-0.4-0.3-0.7-0.5-1c-1.4-1.7-3.6-2.6-5.3-4c-1.8-1.5-0.4-2.1,1.4-2
	c2.1,0.1,4.6,0.9,6.6,0.2c0.3-0.1,0.5-0.2,0.7-0.4c1.5-1.2,1.7-4.1,2.2-5.7c0.3-1,1.3-4.1,2.4-2c1.1,2.1,0.9,4.7,1.9,6.9
	c0.2,0.5,0.6,0.9,1,1.1c1.2,0.7,3.2,0.2,4.6,0c0.6-0.1,5.7-0.7,4.6,1.2c-1.1,1.9-4.2,2.8-5.9,4.1c-0.7,0.5-1.1,1.1-1.3,1.7
	c-0.3,0.9-0.2,2,0.1,3c1.6-0.9,3.7-1.4,6.3-1.7c1.9-0.2,13.8,0.3,14.3-2.3C67,37.7,57.8,34.1,56.2,33.2z"/>
</svg>
